<?xml version="1.0" standalone="no"?>
<!DOCTYPE svg PUBLIC "-//W3C//DTD SVG 20010904//EN"
 "http://www.w3.org/TR/2001/REC-SVG-20010904/DTD/svg10.dtd">
<svg version="1.0" xmlns="http://www.w3.org/2000/svg"
 width="260.000000pt" height="260.000000pt" viewBox="0 0 260.000000 260.000000"
 preserveAspectRatio="xMidYMid meet">
<metadata>
Created by potrace 1.14, written by Peter Selinger 2001-2017
</metadata>
<g transform="translate(0.000000,260.000000) scale(0.100000,-0.100000)"
fill="#000000" stroke="none">
<path d="M1150 2389 c-362 -42 -697 -280 -861 -614 -273 -556 -47 -1224 506
-1495 557 -274 1224 -48 1496 505 215 438 125 959 -223 1297 -245 237 -573
346 -918 307z m15 -69 c25 -72 28 -100 11 -100 -9 0 -21 11 -26 24 -10 26 -39
26 -61 0 -15 -19 -64 -18 -83 2 -38 37 1 84 69 84 34 0 45 4 45 16 0 29 33 10
45 -26z m277 1 c-4 -42 6 -84 18 -76 13 8 13 45 0 45 -5 0 -10 5 -10 10 0 6 7
10 16 10 9 0 18 9 21 20 6 23 21 26 29 7 4 -12 -31 -159 -42 -179 -3 -4 -11
-5 -18 -2 -11 4 -12 13 -5 37 11 40 12 37 -6 37 -8 0 -19 9 -26 21 -8 15 -14
18 -22 10 -12 -12 -47 -15 -47 -5 0 3 11 15 24 25 14 11 27 33 31 50 10 44 41
36 37 -10z m103 -82 c-25 -98 -30 -108 -46 -92 -7 7 -4 36 11 94 25 97 26 100
44 93 11 -4 9 -22 -9 -95z m-690 -40 c29 -47 35 -63 26 -72 -10 -9 -17 -6 -33
16 -14 19 -26 26 -39 22 -21 -7 -25 5 -8 22 8 8 8 17 -1 33 -10 18 -9 24 1 31
8 5 15 9 16 9 1 0 18 -27 38 -61z m910 35 c0 -15 7 -19 32 -17 24 2 32 -2 36
-19 5 -16 9 -19 19 -10 8 6 19 7 26 3 10 -6 7 -19 -15 -54 -15 -26 -31 -47
-36 -47 -4 0 -12 12 -17 26 -6 14 -15 22 -21 19 -12 -8 -89 40 -89 56 0 19 42
70 54 66 6 -2 11 -12 11 -23z m-976 -33 c3 -1 -4 -8 -15 -16 -19 -15 -19 -15
0 -30 11 -8 28 -15 39 -15 10 0 15 -4 12 -10 -3 -5 -18 -10 -33 -10 -18 0 -31
-7 -37 -22 -18 -40 -34 -33 -28 12 6 40 5 41 -21 34 -16 -4 -26 -2 -26 5 0 6
5 11 10 11 6 0 14 10 19 23 8 20 34 26 80 18z m306 -11 c8 -24 11 -24 65 -5
43 15 62 13 44 -4 -5 -5 -33 -16 -63 -25 -61 -18 -81 -10 -81 30 0 29 26 32
35 4z m413 -80 c483 -135 754 -639 594 -1105 -86 -248 -287 -451 -534 -536
-515 -177 -1061 167 -1130 714 -55 439 256 858 701 942 101 19 272 12 369 -15z
m284 -10 c22 -31 15 -58 -17 -66 -31 -8 -63 11 -71 41 -14 55 52 73 88 25z
m-872 1 c0 -12 -93 -71 -113 -71 -23 0 -43 39 -27 54 8 8 15 7 24 -6 17 -23
23 -22 66 7 38 26 50 30 50 16z m1134 -50 c26 -29 17 -65 -18 -71 -26 -4 -27
-6 -13 -19 9 -7 14 -17 11 -23 -3 -5 -12 -4 -22 4 -8 7 -25 13 -36 13 -14 0
-21 6 -21 20 0 11 -4 26 -9 33 -12 19 1 27 19 12 13 -11 15 -9 15 12 0 14 3
28 7 31 13 14 50 7 67 -12z m-1471 -59 c39 -40 45 -51 34 -60 -10 -9 -24 0
-65 41 -49 49 -56 67 -27 67 6 0 32 -22 58 -48z m1543 -13 c6 -10 -82 -109
-97 -109 -10 0 -41 62 -34 68 2 3 12 -1 20 -8 14 -12 21 -8 53 23 39 40 47 43
58 26z m-1601 -23 c25 -38 -4 -86 -52 -86 -31 0 -58 42 -44 69 24 45 73 53 96
17z m1424 -23 c-10 -11 -5 -22 26 -53 21 -22 35 -43 31 -47 -4 -4 -30 16 -58
45 -49 51 -50 54 -33 72 14 15 21 17 32 9 10 -9 11 -15 2 -26z m-1325 -64
c-27 -27 -53 -49 -60 -49 -6 0 -19 9 -29 20 -14 16 -16 23 -7 32 9 9 16 7 30
-5 17 -16 20 -14 57 23 21 21 42 37 48 33 5 -3 -13 -27 -39 -54z m-184 -1003
c0 -17 -79 -78 -92 -70 -16 10 -8 23 35 53 48 34 57 37 57 17z m32 -81 c-17
-38 -15 -51 6 -32 21 19 46 23 40 6 -2 -7 -23 -26 -46 -43 -51 -36 -69 -25
-46 30 19 46 18 51 -10 25 -15 -14 -30 -20 -37 -15 -8 5 1 19 32 45 38 33 46
36 58 24 12 -12 12 -19 3 -40z m1736 28 c28 25 33 10 10 -29 -20 -33 -20 -34
-47 -18 -52 31 -74 51 -67 63 5 8 19 4 46 -11 37 -21 39 -22 58 -5z m-74 -59
c43 -15 59 -39 25 -39 -26 -1 -36 -14 -31 -40 2 -14 0 -25 -5 -25 -17 0 -73
88 -67 104 8 20 19 20 78 0z m-1566 -50 c12 -8 22 -22 22 -30 0 -18 -8 -18
-27 2 -22 22 -57 14 -61 -14 -2 -13 2 -30 9 -38 18 -22 2 -30 -21 -9 -24 22
-26 62 -3 87 20 22 51 23 81 2z m1482 8 c0 -4 -5 -13 -11 -19 -7 -7 0 -19 25
-40 25 -23 31 -34 23 -42 -8 -8 -20 -2 -44 21 -27 26 -36 30 -42 19 -5 -7 -14
-10 -20 -7 -8 5 -3 18 16 41 26 31 53 45 53 27z m-1440 -87 c-10 -12 -10 -18
0 -30 12 -14 15 -14 30 0 32 29 35 -4 4 -38 -39 -42 -47 -48 -58 -37 -6 6 -3
17 7 28 16 17 16 20 2 32 -13 11 -19 10 -34 -4 -14 -12 -21 -14 -26 -6 -10 16
66 93 79 80 6 -6 4 -15 -4 -25z m1392 -22 c40 -39 47 -53 25 -53 -17 0 -89 74
-81 83 12 11 16 9 56 -30z m-43 -21 c7 -14 6 -25 -5 -41 -13 -18 -13 -25 -3
-37 8 -10 9 -18 2 -25 -8 -8 -22 1 -47 28 -42 45 -44 55 -13 76 30 21 54 21
66 -1z m-1231 -35 c25 -27 18 -45 -9 -21 -10 9 -20 11 -23 6 -3 -5 1 -15 9
-22 21 -17 8 -32 -16 -19 -28 15 -36 3 -14 -21 10 -11 15 -23 12 -26 -6 -6
-67 33 -67 43 0 12 63 83 74 83 7 0 22 -10 34 -23z m1132 -16 c0 -5 -7 -11
-15 -15 -28 -10 -17 -28 13 -21 53 11 68 -44 21 -73 -14 -9 -25 -10 -31 -4 -7
7 -3 14 12 22 26 14 18 25 -17 25 -37 0 -52 28 -29 54 19 21 46 28 46 12z
m-1048 -48 c37 -33 11 -103 -39 -103 -28 0 -63 33 -63 60 0 26 34 60 62 60 12
0 30 -7 40 -17z m988 -23 c55 -55 -24 -136 -82 -83 -25 23 -23 68 4 87 30 21
54 20 78 -4z m-910 -56 c0 -37 15 -46 25 -14 7 21 20 26 29 11 8 -13 -44 -103
-58 -98 -6 2 -13 23 -16 48 l-6 44 -14 -27 c-7 -16 -19 -28 -27 -28 -18 0 -17
3 12 60 29 58 55 59 55 4z m803 -21 c21 -58 21 -63 2 -63 -8 0 -15 3 -15 8 -1
18 -18 32 -33 26 -12 -4 -15 -13 -11 -29 11 -44 -16 -37 -36 10 -11 26 -20 51
-20 56 0 14 22 10 34 -7 18 -24 47 -8 40 22 -12 46 21 26 39 -23z m-679 -26
c4 -17 8 -19 18 -9 6 6 21 12 32 12 18 0 17 -4 -11 -32 -16 -18 -33 -41 -37
-51 -7 -21 -33 -17 -28 4 6 24 5 43 -2 76 -6 27 -5 32 7 27 8 -3 18 -15 21
-27z m525 -29 c13 -57 0 -92 -18 -46 -20 53 -24 98 -9 98 9 0 19 -19 27 -52z
m-59 31 c0 -6 -9 -13 -20 -16 -28 -7 -25 -23 5 -23 14 0 25 -4 25 -10 0 -5 -9
-10 -20 -10 -12 0 -20 -7 -20 -16 0 -12 6 -15 25 -10 18 5 25 2 25 -9 0 -9
-10 -16 -25 -16 -14 -1 -31 -2 -37 -3 -7 -1 -18 22 -24 52 -13 56 -13 56 31
65 33 8 35 7 35 -4z m-318 -26 c24 -21 23 -58 -2 -83 -55 -55 -135 24 -83 82
20 22 61 23 85 1z m128 -49 c0 -64 -17 -72 -49 -21 l-21 32 0 -32 c0 -23 -5
-33 -15 -33 -12 0 -15 13 -15 55 0 48 2 55 20 55 11 0 20 -3 20 -7 0 -5 9 -19
20 -33 l21 -25 -7 27 c-3 15 -3 32 1 38 14 22 25 -3 25 -56z m100 56 c0 -5 -9
-10 -19 -10 -30 0 -35 -19 -7 -26 33 -8 45 -43 20 -61 -25 -18 -64 -17 -64 3
0 11 6 13 19 9 30 -9 36 14 6 25 -31 12 -42 35 -25 55 14 17 70 21 70 5z"/>
<path d="M1034 2296 c-9 -22 2 -46 21 -46 12 0 15 8 13 27 -3 30 -25 42 -34
19z"/>
<path d="M1106 2295 c4 -8 10 -12 15 -9 14 8 10 24 -6 24 -9 0 -12 -6 -9 -15z"/>
<path d="M1740 2186 c0 -9 7 -16 16 -16 9 0 14 5 12 12 -6 18 -28 21 -28 4z"/>
<path d="M1810 2160 c0 -5 5 -10 10 -10 6 0 10 5 10 10 0 6 -4 10 -10 10 -5 0
-10 -4 -10 -10z"/>
<path d="M1280 2025 c-22 -27 -115 -82 -180 -108 -80 -31 -205 -57 -319 -65
l-86 -7 -3 -300 c-1 -177 2 -328 8 -369 27 -175 107 -330 240 -467 83 -85 219
-183 308 -223 l43 -20 65 32 c277 137 480 372 528 612 12 62 14 132 9 405 l-6
330 -106 1 c-72 0 -126 6 -166 18 -83 25 -210 88 -272 135 -43 33 -54 37 -63
26z m232 -153 c88 -36 206 -62 286 -62 l59 0 6 -112 c12 -206 8 -517 -8 -592
-29 -135 -106 -266 -226 -382 -74 -71 -203 -162 -291 -205 -47 -22 -48 -23
-85 -5 -21 10 -74 42 -118 70 -191 124 -318 287 -386 491 -22 67 -23 87 -27
405 l-3 336 105 12 c186 20 340 70 430 139 l39 30 73 -47 c40 -26 106 -61 146
-78z"/>
<path d="M1175 1839 c-77 -44 -199 -80 -300 -87 l-90 -7 -3 -65 c-2 -36 -1
-134 3 -217 l7 -153 224 0 c185 0 224 2 224 14 0 8 -11 17 -25 20 -37 9 -105
75 -126 121 -23 49 -24 133 -3 183 20 48 66 95 115 117 37 17 39 21 39 62 0
23 -3 43 -7 42 -5 -1 -30 -14 -58 -30z"/>
<path d="M1350 1826 c0 -30 6 -37 57 -67 171 -101 158 -338 -22 -414 -72 -29
-41 -35 190 -35 l225 0 0 219 0 218 -92 6 c-101 6 -201 33 -290 78 -32 16 -60
29 -63 29 -3 0 -5 -15 -5 -34z"/>
<path d="M1240 1682 c-101 -50 -105 -183 -8 -242 89 -54 202 13 202 118 0 61
-29 104 -84 126 -51 20 -67 20 -110 -2z"/>
<path d="M800 1171 c0 -35 42 -155 76 -221 64 -121 44 -125 214 45 105 105
150 157 150 172 l0 23 -220 0 c-209 0 -220 -1 -220 -19z"/>
<path d="M1350 1162 c0 -22 28 -55 144 -171 l145 -145 20 25 c49 59 142 295
123 313 -3 3 -101 6 -219 6 l-213 0 0 -28z"/>
<path d="M1117 892 c-59 -59 -107 -111 -107 -115 0 -19 162 -138 208 -151 l22
-7 0 190 c0 105 -3 191 -8 191 -4 0 -56 -48 -115 -108z"/>
<path d="M1350 812 c0 -105 4 -192 9 -192 12 0 149 91 189 126 l33 29 -116
115 -115 115 0 -193z"/>
<path d="M1742 2098 c-18 -18 -14 -38 8 -38 13 0 20 7 20 19 0 25 -13 34 -28
19z"/>
<path d="M2007 2025 c-7 -16 8 -29 23 -20 15 9 12 35 -4 35 -8 0 -16 -7 -19
-15z"/>
<path d="M455 1940 c-9 -15 14 -40 36 -40 21 0 25 20 7 38 -15 15 -35 15 -43
2z"/>
<path d="M2090 730 c0 -5 5 -10 11 -10 5 0 7 5 4 10 -3 6 -8 10 -11 10 -2 0
-4 -4 -4 -10z"/>
<path d="M1910 554 c0 -9 5 -14 12 -12 18 6 21 28 4 28 -9 0 -16 -7 -16 -16z"/>
<path d="M752 458 c-15 -15 -15 -31 0 -46 17 -17 48 4 48 33 0 27 -27 34 -48
13z"/>
<path d="M1733 434 c-8 -22 10 -49 33 -49 22 0 31 30 14 50 -16 20 -39 19 -47
-1z"/>
<path d="M1100 315 c-17 -21 -8 -50 17 -53 26 -4 41 31 23 53 -16 19 -24 19
-40 0z"/>
</g>
</svg>
